# xmcd
#
# Track frame offsets:
#	150
#	15320
#	32432
#	45252
#	58460
#	75085
#	93702
#	112285
#	128627
#	142967
#	159860
#	177405
#	192402
#
# Disc length: 2816 seconds
#
# Revision: 0
# Processed by: cddbd v1.5.1PL2 Copyright (c) Steve Scherf et al.
# Submitted via: dBpowerAMP V4.0
#
DISCID=9f0afe0d
DTITLE=Sheila Henderson - Waiting For Venus
DYEAR=1997
DGENRE=Country/Folk
TTITLE0=Something In My Eye
TTITLE1=Killin' The Blues
TTITLE2=Waiting For Venus
TTITLE3=Dancing In The Rain
TTITLE4=Calling Me Home
TTITLE5=Willow In The Wind
TTITLE6=Eyes Of A Stranger
TTITLE7=Come The Early Morning
TTITLE8=Don't Forget About Me
TTITLE9=Jenny's Song
TTITLE10=Never Close Enough
TTITLE11=For Shame Of Doing Wrong
TTITLE12=I Don't Love You Anymore
EXTD=
EXTT0=
EXTT1=
EXTT2=
EXTT3=
EXTT4=
EXTT5=
EXTT6=
EXTT7=
EXTT8=
EXTT9=
EXTT10=
EXTT11=
EXTT12=
PLAYORDER=
